<svg xmlns="http://www.w3.org/2000/svg" xmlns:xlink="http://www.w3.org/1999/xlink" width="500" zoomAndPan="magnify" viewBox="0 0 375 374.999991" height="500" preserveAspectRatio="xMidYMid meet" version="1.0"><defs><g/><clipPath id="c6aa92a907"><path d="M 30 20.929688 L 344 20.929688 L 344 353.929688 L 30 353.929688 Z M 30 20.929688 " clip-rule="nonzero"/></clipPath><clipPath id="390a811791"><path d="M 124 120 L 268 120 L 268 233 L 124 233 Z M 124 120 " clip-rule="nonzero"/></clipPath><clipPath id="559cf1e001"><path d="M 118.605469 135.121094 L 267.894531 120.53125 L 277.746094 221.300781 L 128.457031 235.894531 Z M 118.605469 135.121094 " clip-rule="nonzero"/></clipPath><clipPath id="a451263e08"><path d="M 118.605469 135.121094 L 267.894531 120.53125 L 277.746094 221.300781 L 128.457031 235.894531 Z M 118.605469 135.121094 " clip-rule="nonzero"/></clipPath><clipPath id="819affaf93"><path d="M 118.605469 135.121094 L 267.894531 120.53125 L 277.746094 221.300781 L 128.457031 235.894531 Z M 118.605469 135.121094 " clip-rule="nonzero"/></clipPath><clipPath id="3144c33714"><path d="M 171.914062 289.011719 L 203.414062 289.011719 L 203.414062 316.011719 L 171.914062 316.011719 Z M 171.914062 289.011719 " clip-rule="nonzero"/></clipPath></defs><g clip-path="url(#c6aa92a907)"><path fill="#4a5ce6" d="M 187.113281 20.929688 C 133.210938 22.289062 79.957031 36.683594 32.191406 61.554688 C 37.464844 116.167969 54.246094 169.488281 82.730469 216.375 C 87.773438 224.765625 93.1875 232.933594 98.9375 240.855469 C 88.152344 223.609375 79.394531 205.101562 73.023438 185.742188 C 61.707031 151.640625 56.984375 115.242188 58.8125 79.378906 C 96.90625 56.628906 140.429688 42.570312 184.5625 37.730469 C 237.875 31.871094 293.03125 39.421875 342.324219 60.601562 C 294.429688 35.9375 241.015625 21.964844 187.113281 20.929688 Z M 342.324219 60.601562 C 319.074219 53.070312 295.308594 47.570312 271.242188 44.382812 C 198.886719 34.589844 124.46875 47.582031 58.8125 79.378906 C 98.9375 60.527344 142.898438 49.984375 187.207031 48.652344 C 231.515625 49.6875 275.539062 59.945312 315.777344 78.546875 C 324.15625 134.796875 314.582031 193.789062 288.738281 244.46875 C 278.277344 265.417969 264.832031 285.117188 249.316406 302.628906 C 231.628906 322.636719 211.019531 340.121094 188.269531 354.046875 C 189.035156 353.621094 195.328125 350.136719 198.242188 348.472656 L 202.90625 345.738281 C 214.9375 338.511719 226.488281 330.464844 237.402344 321.628906 C 315.488281 259.066406 351.539062 159.082031 342.324219 60.601562 Z M 302.265625 185 C 284.484375 240.207031 247.382812 288.65625 199 320.613281 C 195.53125 322.929688 191.761719 325.324219 188.121094 327.523438 C 143.054688 301.546875 105 263.652344 78.027344 219.230469 C 49.3125 172.019531 32.875 116.792969 32.191406 61.554688 C 23.503906 160.0625 60.320312 259.925781 138.785156 321.941406 C 149.742188 330.710938 161.332031 338.6875 173.417969 345.828125 L 178.105469 348.539062 C 181.238281 350.292969 188.1875 354.089844 188.1875 354.089844 C 188.195312 354.089844 188.195312 354.082031 188.203125 354.082031 C 198.894531 346.144531 209.152344 337.699219 218.820312 328.660156 C 240.535156 308.367188 259.359375 284.976562 274.46875 259.398438 C 306.421875 205.203125 319.996094 141.144531 315.773438 78.546875 C 317.84375 114.390625 313.363281 150.828125 302.265625 185 Z M 302.265625 185 " fill-opacity="1" fill-rule="nonzero"/></g><g fill="#4a5ce6" fill-opacity="1"><g transform="translate(100.301864, 250.874984)"><g><path d="M 40.734375 -28.265625 C 40.734375 -24.359375 41.453125 -20.664062 42.890625 -17.1875 C 44.335938 -13.707031 46.332031 -10.691406 48.875 -8.140625 C 51.425781 -5.597656 54.394531 -3.601562 57.78125 -2.15625 C 61.175781 -0.71875 64.828125 0 68.734375 0 L 6.359375 0 C 10.097656 -0.507812 13.707031 -1.695312 17.1875 -3.5625 C 20.664062 -5.425781 23.929688 -7.757812 26.984375 -10.5625 C 30.035156 -13.363281 32.75 -16.460938 35.125 -19.859375 C 37.507812 -23.253906 39.378906 -26.734375 40.734375 -30.296875 Z M 89.609375 0 C 93.171875 0 96.222656 -1.484375 98.765625 -4.453125 C 101.316406 -7.421875 102.59375 -10.773438 102.59375 -14.515625 C 102.59375 -15.191406 102.59375 -15.867188 102.59375 -16.546875 C 102.59375 -17.222656 102.421875 -17.898438 102.078125 -18.578125 L 94.703125 -39.96875 L 94.1875 -41.5 L 76.125 -93.6875 C 74.9375 -96.570312 72.8125 -98.015625 69.75 -98.015625 C 66.863281 -98.015625 64.828125 -96.570312 63.640625 -93.6875 L 94.1875 -178.203125 L 122.453125 -97 C 123.640625 -93.601562 124.992188 -89.570312 126.515625 -84.90625 C 128.046875 -80.238281 129.40625 -76.207031 130.59375 -72.8125 L 151.46875 -13.234375 C 152.65625 -9.835938 154.734375 -6.78125 157.703125 -4.0625 C 160.679688 -1.351562 164.117188 0 168.015625 0 Z M 89.609375 0 "/></g></g></g><g clip-path="url(#390a811791)"><g clip-path="url(#559cf1e001)"><g clip-path="url(#a451263e08)"><g clip-path="url(#819affaf93)"><path fill="#00d300" d="M 166.011719 232.199219 L 124.976562 199.441406 L 144.242188 177.515625 L 161.476562 196.648438 C 161.476562 196.648438 205.394531 140.578125 267.804688 120.539062 C 198.640625 163.96875 166.011719 232.199219 166.011719 232.199219 Z M 166.011719 232.199219 " fill-opacity="1" fill-rule="nonzero"/></g></g></g></g><g clip-path="url(#3144c33714)"><path fill="#00d300" d="M 175.554688 299.394531 C 175.414062 299.394531 175.289062 299.445312 175.1875 299.546875 C 175.085938 299.648438 175.035156 299.773438 175.035156 299.914062 L 175.035156 304.070312 C 175.035156 304.210938 175.085938 304.335938 175.1875 304.4375 C 175.289062 304.539062 175.414062 304.589844 175.554688 304.589844 L 180.75 304.589844 C 180.890625 304.589844 181.015625 304.539062 181.117188 304.4375 C 181.21875 304.335938 181.269531 304.210938 181.269531 304.070312 L 181.269531 299.914062 C 181.269531 299.773438 181.21875 299.648438 181.117188 299.546875 C 181.015625 299.445312 180.890625 299.394531 180.75 299.394531 Z M 180.230469 303.550781 L 176.074219 303.550781 L 176.074219 300.433594 L 180.230469 300.433594 Z M 186.980469 306.664062 L 174.519531 306.664062 C 174.3125 306.664062 174.113281 306.625 173.921875 306.546875 C 173.730469 306.464844 173.5625 306.355469 173.417969 306.207031 C 173.269531 306.0625 173.160156 305.894531 173.078125 305.703125 C 173 305.511719 172.960938 305.3125 172.960938 305.105469 L 172.960938 297.320312 L 197.882812 297.320312 L 197.882812 298.875 C 197.882812 299.019531 197.933594 299.140625 198.035156 299.242188 C 198.136719 299.34375 198.257812 299.394531 198.402344 299.394531 C 198.546875 299.394531 198.667969 299.34375 198.769531 299.242188 C 198.871094 299.140625 198.921875 299.019531 198.921875 298.875 L 198.921875 291.605469 C 198.921875 291.261719 198.855469 290.933594 198.722656 290.613281 C 198.589844 290.296875 198.402344 290.015625 198.160156 289.773438 C 197.917969 289.527344 197.636719 289.339844 197.320312 289.210938 C 197 289.078125 196.667969 289.011719 196.324219 289.011719 L 174.519531 289.011719 C 174.171875 289.011719 173.84375 289.078125 173.523438 289.210938 C 173.207031 289.339844 172.925781 289.527344 172.683594 289.773438 C 172.441406 290.015625 172.253906 290.296875 172.121094 290.613281 C 171.988281 290.933594 171.921875 291.261719 171.921875 291.605469 L 171.921875 305.105469 C 171.921875 305.453125 171.988281 305.78125 172.121094 306.101562 C 172.253906 306.417969 172.441406 306.699219 172.683594 306.941406 C 172.925781 307.183594 173.207031 307.375 173.523438 307.503906 C 173.84375 307.636719 174.171875 307.703125 174.519531 307.703125 L 186.980469 307.703125 C 187.121094 307.703125 187.246094 307.652344 187.347656 307.550781 C 187.449219 307.449219 187.5 307.328125 187.5 307.183594 C 187.5 307.039062 187.449219 306.917969 187.347656 306.816406 C 187.246094 306.714844 187.121094 306.664062 186.980469 306.664062 Z M 172.960938 296.28125 L 172.960938 293.164062 L 197.882812 293.164062 L 197.882812 296.28125 Z M 174.519531 290.050781 L 196.324219 290.050781 C 196.53125 290.050781 196.730469 290.089844 196.921875 290.167969 C 197.113281 290.246094 197.28125 290.359375 197.425781 290.507812 C 197.574219 290.652344 197.683594 290.820312 197.765625 291.011719 C 197.84375 291.203125 197.882812 291.402344 197.882812 291.605469 L 197.882812 292.125 L 172.960938 292.125 L 172.960938 291.605469 C 172.960938 291.402344 173 291.203125 173.078125 291.011719 C 173.160156 290.820312 173.269531 290.652344 173.417969 290.507812 C 173.5625 290.359375 173.730469 290.246094 173.921875 290.167969 C 174.113281 290.089844 174.3125 290.050781 174.519531 290.050781 Z M 202.554688 301.472656 C 200.21875 301.433594 198.070312 300.777344 196.109375 299.496094 C 195.90625 299.347656 195.703125 299.347656 195.5 299.496094 C 193.542969 300.777344 191.394531 301.433594 189.054688 301.472656 C 188.914062 301.472656 188.789062 301.523438 188.6875 301.625 C 188.585938 301.726562 188.535156 301.847656 188.535156 301.992188 L 188.535156 307.183594 C 188.535156 313.605469 195.574219 315.964844 195.644531 315.984375 C 195.753906 316.019531 195.859375 316.019531 195.964844 315.984375 C 196.039062 315.964844 203.074219 313.605469 203.074219 307.183594 L 203.074219 301.992188 C 203.074219 301.847656 203.023438 301.726562 202.921875 301.625 C 202.820312 301.523438 202.699219 301.472656 202.554688 301.472656 Z M 202.035156 307.183594 C 202.035156 312.335938 196.796875 314.5625 195.804688 314.941406 C 194.816406 314.5625 189.574219 312.335938 189.574219 307.183594 L 189.574219 302.5 C 191.820312 302.378906 193.898438 301.726562 195.804688 300.539062 C 197.714844 301.726562 199.792969 302.378906 202.035156 302.5 Z M 194.769531 309.566406 L 199.074219 305.257812 C 199.175781 305.160156 199.296875 305.109375 199.441406 305.109375 C 199.582031 305.109375 199.703125 305.160156 199.804688 305.261719 C 199.90625 305.363281 199.957031 305.484375 199.957031 305.628906 C 199.957031 305.769531 199.910156 305.890625 199.808594 305.992188 L 195.136719 310.667969 C 195.035156 310.769531 194.910156 310.820312 194.769531 310.820312 C 194.625 310.820312 194.503906 310.769531 194.402344 310.667969 L 191.804688 308.070312 C 191.703125 307.96875 191.65625 307.847656 191.65625 307.703125 C 191.65625 307.5625 191.707031 307.441406 191.808594 307.339844 C 191.90625 307.238281 192.03125 307.1875 192.171875 307.1875 C 192.316406 307.1875 192.4375 307.234375 192.539062 307.335938 Z M 194.769531 309.566406 " fill-opacity="1" fill-rule="nonzero"/></g><g fill="#fefffe" fill-opacity="1"><g transform="translate(169.5212, 205.614797)"><g><path d="M 3.933594 2.097656 C 4.003906 2.011719 3.953125 1.890625 3.90625 1.773438 C 3.886719 1.738281 3.867188 1.691406 3.863281 1.65625 C 3.785156 1.414062 3.710938 1.144531 3.570312 0.898438 C 3.007812 -0.0585938 2.640625 -1.101562 2.277344 -2.113281 C 2.078125 -2.664062 1.867188 -3.238281 1.644531 -3.792969 C 1.339844 -4.480469 1.449219 -5.058594 1.964844 -5.664062 C 2.09375 -5.8125 2.242188 -5.96875 2.433594 -6.140625 C 2.578125 -6.269531 2.742188 -6.386719 2.910156 -6.511719 C 3.023438 -6.589844 3.136719 -6.683594 3.257812 -6.769531 L 3.289062 -6.808594 C 3.339844 -6.847656 3.386719 -6.882812 3.417969 -6.921875 C 3.472656 -6.984375 3.46875 -7.035156 3.398438 -7.082031 C 3.359375 -7.113281 3.316406 -7.121094 3.28125 -7.117188 C 3.230469 -7.113281 3.175781 -7.066406 3.128906 -7.011719 C 3.097656 -6.972656 3.066406 -6.953125 3.023438 -6.925781 C 2.410156 -6.464844 1.886719 -5.925781 1.277344 -5.285156 L 1.203125 -5.21875 L 1.179688 -5.300781 C 0.976562 -6.125 0.730469 -6.957031 0.496094 -7.761719 L 0.351562 -8.261719 C 0.125 -9.042969 -0.132812 -9.949219 -0.316406 -10.851562 C -0.414062 -11.316406 -0.492188 -11.746094 -0.542969 -12.15625 C -0.554688 -12.292969 -0.578125 -12.410156 -0.597656 -12.535156 C -0.644531 -12.765625 -0.6875 -12.992188 -0.679688 -13.242188 C -0.683594 -13.257812 -0.671875 -13.347656 -0.617188 -13.410156 L -0.585938 -13.445312 L -0.570312 -13.449219 C -0.554688 -13.46875 -0.511719 -13.480469 -0.457031 -13.464844 C 0.0273438 -13.382812 1.527344 -11.136719 1.820312 -10.695312 C 2.449219 -9.734375 3.042969 -8.734375 3.625 -7.777344 C 4.484375 -6.347656 5.367188 -4.863281 6.398438 -3.460938 C 6.40625 -3.4375 6.4375 -3.398438 6.449219 -3.355469 C 6.488281 -3.273438 6.53125 -3.191406 6.601562 -3.179688 C 6.636719 -3.164062 6.667969 -3.167969 6.703125 -3.1875 C 6.761719 -3.199219 6.800781 -3.230469 6.816406 -3.246094 C 6.878906 -3.320312 6.804688 -3.417969 6.738281 -3.507812 C 6.71875 -3.539062 6.691406 -3.5625 6.679688 -3.585938 C 6.082031 -4.636719 5.5 -5.65625 4.878906 -6.660156 C 4.644531 -7.054688 4.40625 -7.445312 4.167969 -7.839844 C 3.128906 -9.566406 2.0625 -11.351562 0.6875 -12.984375 C 0.402344 -13.304688 0.128906 -13.632812 -0.339844 -13.808594 C -0.597656 -13.917969 -0.777344 -13.894531 -0.886719 -13.765625 C -0.933594 -13.710938 -0.96875 -13.648438 -0.988281 -13.570312 C -1.089844 -13.226562 -1.054688 -12.894531 -1.003906 -12.5625 C -0.710938 -10.710938 -0.175781 -8.875 0.339844 -7.113281 C 0.507812 -6.527344 0.671875 -5.957031 0.839844 -5.386719 C 0.9375 -5.015625 0.890625 -4.753906 0.648438 -4.46875 C 0.648438 -4.46875 0.496094 -4.3125 0.441406 -4.246094 C -0.078125 -3.640625 -0.511719 -2.945312 -0.90625 -2.125 L -0.9375 -2.050781 C -1.019531 -1.898438 -1.085938 -1.765625 -0.9375 -1.65625 C -0.835938 -1.570312 -0.710938 -1.605469 -0.527344 -1.671875 C -0.488281 -1.683594 -0.453125 -1.707031 -0.410156 -1.71875 C 0.175781 -1.902344 0.707031 -1.875 1.234375 -1.617188 C 1.878906 -1.308594 2.269531 -0.910156 2.441406 -0.382812 C 2.644531 0.234375 2.929688 1.035156 3.34375 1.78125 C 3.371094 1.824219 3.390625 1.855469 3.402344 1.898438 C 3.496094 2.105469 3.566406 2.226562 3.785156 2.175781 C 3.851562 2.152344 3.902344 2.132812 3.933594 2.097656 Z M 0.992188 -4.445312 L 1.0625 -4.511719 L 2.058594 -1.410156 L 1.933594 -1.484375 C 1.207031 -1.976562 0.5 -2.132812 -0.277344 -1.96875 C -0.453125 -1.929688 -0.542969 -1.957031 -0.570312 -1.996094 C -0.609375 -2.027344 -0.636719 -2.085938 -0.5625 -2.226562 C -0.234375 -2.820312 0.109375 -3.449219 0.621094 -4.046875 C 0.738281 -4.183594 0.863281 -4.316406 0.992188 -4.445312 Z M 0.992188 -4.445312 "/></g></g></g><g fill="#fefffe" fill-opacity="1"><g transform="translate(175.75387, 198.299475)"><g><path d="M 2.234375 -6.261719 C 2.203125 -6.222656 2.203125 -6.128906 2.199219 -6.070312 L 2.195312 -6.027344 C 2.171875 -5.902344 2.179688 -5.785156 2.171875 -5.664062 C 2.179688 -5.59375 2.175781 -5.535156 2.164062 -5.464844 C 2.15625 -5.328125 2.15625 -5.199219 2.152344 -5.0625 C 2.148438 -4.871094 2.148438 -4.683594 2.136719 -4.484375 C 2.089844 -3.90625 2.046875 -3.277344 1.976562 -2.652344 C 1.964844 -2.566406 1.902344 -2.289062 1.792969 -2.160156 C 1.777344 -2.140625 1.761719 -2.121094 1.734375 -2.113281 C 1.703125 -2.09375 1.679688 -2.082031 1.640625 -2.097656 C 1.597656 -2.101562 1.554688 -2.140625 1.503906 -2.214844 L 1.421875 -2.378906 C 1.316406 -2.550781 1.214844 -2.730469 1.132812 -2.914062 L 0.933594 -3.367188 C 0.679688 -3.949219 0.417969 -4.535156 0.148438 -5.117188 C 0.09375 -5.257812 0.0351562 -5.355469 -0.140625 -5.316406 C -0.210938 -5.308594 -0.257812 -5.289062 -0.300781 -5.242188 C -0.347656 -5.1875 -0.367188 -5.109375 -0.386719 -5.03125 C -0.421875 -4.933594 -0.429688 -4.828125 -0.421875 -4.726562 L -0.417969 -4.675781 C -0.40625 -4.539062 -0.402344 -4.410156 -0.492188 -4.308594 C -0.570312 -4.21875 -0.730469 -4.179688 -0.988281 -4.191406 C -1.152344 -4.207031 -1.285156 -4.050781 -1.425781 -3.902344 L -1.457031 -3.863281 C -1.773438 -3.496094 -1.875 -3.074219 -1.816406 -2.546875 C -1.714844 -1.808594 -1.417969 -1.113281 -0.964844 -0.472656 L -0.914062 -0.398438 C -0.730469 -0.148438 -0.539062 0.144531 -0.125 0.0351562 C -0.0234375 0.0117188 0.046875 -0.0390625 0.101562 -0.101562 C 0.222656 -0.242188 0.222656 -0.445312 0.222656 -0.636719 L 0.222656 -0.765625 C 0.242188 -1.367188 0.144531 -1.957031 0.0546875 -2.542969 C 0.0078125 -2.804688 -0.0390625 -3.066406 -0.0703125 -3.332031 C -0.0820312 -3.390625 -0.078125 -3.449219 -0.0898438 -3.511719 L -0.101562 -3.628906 L -0.0585938 -3.625 C 0.09375 -3.636719 0.136719 -3.664062 0.152344 -3.683594 C 0.183594 -3.71875 0.101562 -3.792969 0.046875 -3.839844 L 0.015625 -3.863281 C -0.167969 -4.035156 -0.230469 -4.261719 -0.25 -4.441406 C -0.25 -4.441406 -0.296875 -4.796875 -0.195312 -4.917969 C -0.179688 -4.933594 -0.15625 -4.945312 -0.148438 -4.957031 C -0.105469 -4.96875 -0.0703125 -4.96875 -0.0351562 -4.957031 C 0.113281 -4.90625 0.203125 -4.640625 0.265625 -4.394531 C 0.277344 -4.355469 0.296875 -4.320312 0.300781 -4.304688 C 0.351562 -4.179688 0.578125 -3.589844 0.578125 -3.589844 C 0.753906 -3.140625 0.960938 -2.660156 1.265625 -2.210938 C 1.285156 -2.179688 1.304688 -2.144531 1.324219 -2.113281 C 1.414062 -1.941406 1.511719 -1.792969 1.792969 -1.839844 C 1.902344 -1.859375 1.984375 -1.898438 2.039062 -1.964844 C 2.109375 -2.046875 2.125 -2.160156 2.152344 -2.265625 L 2.164062 -2.351562 C 2.441406 -3.6875 2.511719 -4.960938 2.382812 -6.152344 C 2.375 -6.21875 2.347656 -6.277344 2.3125 -6.292969 C 2.285156 -6.300781 2.269531 -6.28125 2.234375 -6.261719 Z M -0.410156 -3.863281 C -0.363281 -3.488281 -0.292969 -3.109375 -0.21875 -2.746094 C -0.0820312 -1.976562 0.0703125 -1.164062 -0.0625 -0.355469 C -0.0664062 -0.3125 -0.0820312 -0.277344 -0.105469 -0.25 C -0.128906 -0.222656 -0.160156 -0.203125 -0.203125 -0.191406 C -0.355469 -0.175781 -0.542969 -0.367188 -0.601562 -0.433594 C -0.707031 -0.585938 -0.765625 -0.761719 -0.820312 -0.921875 C -0.851562 -0.996094 -0.875 -1.0625 -0.898438 -1.128906 C -1.15625 -1.777344 -1.421875 -2.527344 -1.28125 -3.347656 C -1.25 -3.511719 -1.179688 -3.6875 -1.082031 -3.859375 C -1.074219 -3.886719 -1.066406 -3.894531 -1.050781 -3.914062 C -0.964844 -4.015625 -0.804688 -4.070312 -0.652344 -4.066406 C -0.503906 -4.050781 -0.421875 -3.980469 -0.410156 -3.863281 Z M -0.410156 -3.863281 "/></g></g></g><g fill="#fefffe" fill-opacity="1"><g transform="translate(179.571869, 193.818268)"><g><path d="M 1.992188 -5.230469 C 1.96875 -5.203125 1.964844 -5.15625 1.941406 -5.113281 C 1.933594 -5.085938 1.921875 -5.050781 1.914062 -5.027344 C 1.875 -4.960938 1.839844 -4.898438 1.792969 -4.84375 C 1.5 -4.503906 1.003906 -4.308594 0.46875 -4.316406 C -0.0117188 -4.332031 -0.273438 -4.300781 -0.402344 -4.152344 C -0.480469 -4.0625 -0.519531 -3.90625 -0.539062 -3.621094 C -0.5625 -3.199219 -0.566406 -2.785156 -0.566406 -2.355469 L -0.574219 -1.695312 C -0.570312 -1.644531 -0.566406 -1.59375 -0.558594 -1.523438 C -0.546875 -1.390625 -0.527344 -1.246094 -0.601562 -1.101562 L -0.625 -1.074219 L -0.652344 -1.082031 C -0.746094 -1.082031 -0.921875 -1.453125 -0.921875 -1.453125 C -0.988281 -1.621094 -1.058594 -1.777344 -1.132812 -1.933594 C -1.246094 -2.171875 -1.375 -2.410156 -1.5 -2.660156 L -1.621094 -2.875 C -1.628906 -2.898438 -1.640625 -2.941406 -1.652344 -2.964844 C -1.691406 -3.046875 -1.71875 -3.148438 -1.804688 -3.175781 C -1.859375 -3.1875 -1.910156 -3.183594 -1.976562 -3.160156 C -2.019531 -3.148438 -2.050781 -3.128906 -2.074219 -3.101562 C -2.136719 -3.027344 -2.09375 -2.894531 -2.066406 -2.792969 L -2.046875 -2.761719 C -1.761719 -1.882812 -1.34375 -1.015625 -0.773438 -0.101562 L -0.742188 -0.0625 C -0.671875 0.0625 -0.59375 0.191406 -0.375 0.140625 C -0.296875 0.125 -0.242188 0.0976562 -0.210938 0.0585938 C -0.15625 -0.00390625 -0.179688 -0.0898438 -0.203125 -0.171875 C -0.207031 -0.207031 -0.207031 -0.242188 -0.210938 -0.273438 L -0.253906 -0.691406 C -0.34375 -1.609375 -0.425781 -2.554688 -0.347656 -3.488281 C -0.324219 -3.757812 -0.3125 -3.902344 -0.226562 -4.003906 C -0.117188 -4.132812 0.0820312 -4.140625 0.527344 -4.144531 C 1.058594 -4.152344 1.589844 -4.382812 1.886719 -4.730469 C 2.003906 -4.871094 2.085938 -5.023438 2.109375 -5.179688 C 2.121094 -5.230469 2.101562 -5.261719 2.085938 -5.261719 C 2.074219 -5.269531 2.042969 -5.265625 1.992188 -5.230469 Z M 1.992188 -5.230469 "/></g></g></g><g fill="#fefffe" fill-opacity="1"><g transform="translate(182.888119, 189.925966)"><g><path d="M 0.949219 -4.226562 C 0.910156 -4.183594 0.882812 -4.109375 0.859375 -4.050781 L 0.730469 -3.746094 C 0.582031 -3.367188 0.414062 -2.984375 0.308594 -2.597656 C 0.140625 -2.011719 -0.00390625 -1.433594 -0.160156 -0.800781 C -0.230469 -0.53125 -0.300781 -0.242188 -0.363281 0.0546875 L -0.398438 0.167969 L -0.449219 0.0625 C -1.457031 -1.8125 -2.238281 -3.542969 -2.847656 -5.238281 L -2.878906 -5.3125 C -3.097656 -5.910156 -3.316406 -6.527344 -3.34375 -7.171875 C -3.335938 -7.195312 -3.347656 -7.222656 -3.339844 -7.246094 C -3.367188 -7.332031 -3.371094 -7.417969 -3.316406 -7.480469 C -3.285156 -7.519531 -3.234375 -7.539062 -3.1875 -7.558594 C -3 -7.609375 -2.898438 -7.488281 -2.820312 -7.390625 C -2.800781 -7.375 -2.785156 -7.359375 -2.765625 -7.328125 C -2.464844 -7.027344 -2.28125 -6.664062 -2.101562 -6.316406 L -2.078125 -6.25 C -1.90625 -5.929688 -1.734375 -5.609375 -1.554688 -5.296875 C -1.542969 -5.253906 -1.464844 -5.140625 -1.296875 -5.1875 C -1.265625 -5.191406 -1.25 -5.210938 -1.234375 -5.230469 C -1.210938 -5.257812 -1.195312 -5.308594 -1.191406 -5.351562 C -1.0625 -5.988281 -2.144531 -7.53125 -2.902344 -7.761719 C -3.148438 -7.847656 -3.34375 -7.820312 -3.460938 -7.683594 C -3.515625 -7.621094 -3.554688 -7.539062 -3.570312 -7.445312 C -3.632812 -7.128906 -3.574219 -6.824219 -3.511719 -6.582031 C -3.035156 -4.792969 -2.335938 -3.023438 -1.351562 -1.152344 C -0.757812 -0.0429688 -0.234375 1.167969 -0.671875 2.542969 C -0.671875 2.558594 -0.675781 2.585938 -0.675781 2.617188 C -0.671875 2.652344 -0.679688 2.679688 -0.683594 2.707031 C -0.695312 2.808594 -0.6875 2.878906 -0.601562 2.90625 C -0.46875 2.953125 -0.402344 2.898438 -0.316406 2.796875 C -0.292969 2.769531 -0.277344 2.75 -0.246094 2.730469 C -0.0273438 2.53125 0.160156 2.441406 0.324219 2.453125 C 0.480469 2.457031 0.625 2.566406 0.746094 2.78125 L 1.21875 3.566406 C 1.597656 4.203125 1.972656 4.84375 2.378906 5.488281 C 2.476562 5.652344 2.566406 5.808594 2.863281 5.757812 C 2.972656 5.742188 3.054688 5.699219 3.109375 5.636719 C 3.179688 5.554688 3.195312 5.441406 3.214844 5.328125 C 3.445312 4.046875 2.40625 2.636719 0.894531 2.191406 L 0.859375 2.179688 C 0.78125 2.160156 0.703125 2.140625 0.683594 2.089844 C 0.589844 1.898438 0.472656 1.722656 0.355469 1.542969 C 0.0898438 1.140625 -0.179688 0.734375 -0.09375 0.222656 C 0.167969 -1.445312 0.539062 -2.796875 1.101562 -4.015625 C 1.109375 -4.042969 1.125 -4.0625 1.132812 -4.089844 C 1.167969 -4.152344 1.207031 -4.214844 1.179688 -4.253906 C 1.175781 -4.273438 1.167969 -4.28125 1.132812 -4.292969 C 1.0625 -4.304688 1.003906 -4.292969 0.949219 -4.226562 Z M 2.421875 4.78125 L 2.355469 4.804688 C 1.824219 4.125 1.453125 3.476562 1.074219 2.804688 L 0.992188 2.65625 L 1.058594 2.617188 C 1.875 3.058594 2.386719 3.875 2.421875 4.78125 Z M -0.164062 1.292969 C 0.222656 1.808594 0.359375 2.003906 0.238281 2.144531 C 0.160156 2.234375 0.00390625 2.289062 -0.28125 2.382812 L -0.347656 2.402344 L -0.238281 1.195312 Z M -0.164062 1.292969 "/></g></g></g><g fill="#fefffe" fill-opacity="1"><g transform="translate(185.30279, 187.091853)"><g><path d="M 1.320312 -4.292969 C 1.316406 -4.230469 1.324219 -4.164062 1.328125 -4.09375 C 1.324219 -4.050781 1.335938 -4.011719 1.332031 -3.964844 C 1.332031 -3.710938 1.316406 -3.484375 1.292969 -3.25 C 1.238281 -2.742188 1.113281 -2.292969 0.929688 -1.894531 C 0.8125 -1.625 0.703125 -1.421875 0.527344 -1.21875 C 0.425781 -1.097656 0.324219 -0.996094 0.183594 -0.90625 C 0.0234375 -0.792969 -0.136719 -0.753906 -0.285156 -0.765625 C -0.40625 -0.773438 -0.503906 -0.828125 -0.570312 -0.914062 L -0.621094 -0.988281 C -0.859375 -1.285156 -1.105469 -1.609375 -0.816406 -2.078125 C -0.414062 -2.71875 -0.269531 -3.265625 -0.363281 -3.789062 C -0.40625 -4.015625 -0.464844 -4.210938 -0.777344 -4.234375 C -0.984375 -4.253906 -1.15625 -4.179688 -1.28125 -4.03125 C -1.320312 -3.984375 -1.363281 -3.941406 -1.390625 -3.871094 C -1.925781 -2.753906 -1.84375 -1.730469 -1.15625 -0.859375 C -0.957031 -0.59375 -0.679688 -0.453125 -0.371094 -0.460938 C -0.0546875 -0.476562 0.257812 -0.636719 0.527344 -0.933594 L 0.566406 -0.980469 C 1.371094 -1.929688 1.421875 -3.046875 1.464844 -4.125 L 1.472656 -4.226562 C 1.476562 -4.304688 1.480469 -4.441406 1.402344 -4.476562 C 1.363281 -4.433594 1.332031 -4.363281 1.320312 -4.292969 Z M -1.054688 -2.453125 C -1.148438 -3.011719 -1.046875 -3.433594 -0.84375 -3.894531 L -0.800781 -4.003906 L -0.765625 -3.894531 C -0.59375 -3.367188 -0.710938 -2.972656 -0.976562 -2.453125 L -1.035156 -2.34375 Z M -1.054688 -2.453125 "/></g></g></g><g fill="#fefffe" fill-opacity="1"><g transform="translate(187.976174, 183.954087)"><g><path d="M 1.320312 -4.292969 C 1.316406 -4.230469 1.324219 -4.164062 1.328125 -4.09375 C 1.324219 -4.050781 1.335938 -4.011719 1.332031 -3.964844 C 1.332031 -3.710938 1.316406 -3.484375 1.292969 -3.25 C 1.238281 -2.742188 1.113281 -2.292969 0.929688 -1.894531 C 0.8125 -1.625 0.703125 -1.421875 0.527344 -1.21875 C 0.425781 -1.097656 0.324219 -0.996094 0.183594 -0.90625 C 0.0234375 -0.792969 -0.136719 -0.753906 -0.285156 -0.765625 C -0.40625 -0.773438 -0.503906 -0.828125 -0.570312 -0.914062 L -0.621094 -0.988281 C -0.859375 -1.285156 -1.105469 -1.609375 -0.816406 -2.078125 C -0.414062 -2.71875 -0.269531 -3.265625 -0.363281 -3.789062 C -0.40625 -4.015625 -0.464844 -4.210938 -0.777344 -4.234375 C -0.984375 -4.253906 -1.15625 -4.179688 -1.28125 -4.03125 C -1.320312 -3.984375 -1.363281 -3.941406 -1.390625 -3.871094 C -1.925781 -2.753906 -1.84375 -1.730469 -1.15625 -0.859375 C -0.957031 -0.59375 -0.679688 -0.453125 -0.371094 -0.460938 C -0.0546875 -0.476562 0.257812 -0.636719 0.527344 -0.933594 L 0.566406 -0.980469 C 1.371094 -1.929688 1.421875 -3.046875 1.464844 -4.125 L 1.472656 -4.226562 C 1.476562 -4.304688 1.480469 -4.441406 1.402344 -4.476562 C 1.363281 -4.433594 1.332031 -4.363281 1.320312 -4.292969 Z M -1.054688 -2.453125 C -1.148438 -3.011719 -1.046875 -3.433594 -0.84375 -3.894531 L -0.800781 -4.003906 L -0.765625 -3.894531 C -0.59375 -3.367188 -0.710938 -2.972656 -0.976562 -2.453125 L -1.035156 -2.34375 Z M -1.054688 -2.453125 "/></g></g></g><g fill="#fefffe" fill-opacity="1"><g transform="translate(190.649558, 180.816321)"><g><path d="M 2.777344 -6.371094 C 2.742188 -6.371094 2.734375 -6.359375 2.71875 -6.34375 C 2.671875 -6.285156 2.714844 -6.171875 2.746094 -6.097656 L 2.765625 -6.0625 C 3.003906 -5.464844 3.046875 -4.808594 3.089844 -4.277344 C 3.140625 -3.648438 3.15625 -2.921875 2.84375 -2.199219 C 2.824219 -2.136719 2.792969 -2.066406 2.753906 -2.023438 C 2.699219 -1.957031 2.625 -1.925781 2.539062 -1.917969 C 2.386719 -1.90625 2.328125 -2.023438 2.285156 -2.105469 L 2.265625 -2.152344 C 2.183594 -2.285156 2.113281 -2.425781 2.050781 -2.558594 C 1.929688 -2.804688 1.796875 -3.058594 1.632812 -3.296875 C 1.507812 -3.484375 1.328125 -3.570312 1.136719 -3.574219 C 0.957031 -3.566406 0.792969 -3.484375 0.652344 -3.320312 C 0.628906 -3.292969 0.597656 -3.257812 0.582031 -3.21875 C 0.414062 -2.96875 0.285156 -2.683594 0.183594 -2.339844 C 0.0859375 -2.058594 -0.00390625 -1.785156 -0.078125 -1.511719 C -0.0976562 -1.417969 -0.105469 -1.328125 -0.125 -1.234375 C -0.125 -1.15625 -0.128906 -1.078125 -0.148438 -1 C -0.167969 -0.9375 -0.21875 -0.789062 -0.289062 -0.707031 C -0.320312 -0.667969 -0.351562 -0.648438 -0.386719 -0.648438 C -0.480469 -0.628906 -0.519531 -0.714844 -0.53125 -0.738281 L -1.09375 -1.773438 C -1.105469 -1.800781 -1.125 -1.832031 -1.136719 -1.875 C -1.207031 -2.015625 -1.324219 -2.269531 -1.488281 -2.316406 C -1.542969 -2.332031 -1.582031 -2.316406 -1.640625 -2.304688 C -1.675781 -2.285156 -1.691406 -2.265625 -1.707031 -2.25 C -1.746094 -2.203125 -1.730469 -2.125 -1.707031 -2.058594 L -1.695312 -2.019531 C -1.519531 -1.421875 -1.234375 -0.84375 -0.8125 -0.3125 L -0.785156 -0.273438 C -0.699219 -0.148438 -0.621094 -0.0351562 -0.398438 -0.0703125 C -0.289062 -0.0898438 -0.214844 -0.121094 -0.167969 -0.175781 C -0.113281 -0.238281 -0.09375 -0.335938 -0.0742188 -0.414062 L -0.0703125 -0.457031 C -0.0273438 -0.640625 0.0117188 -0.816406 0.0390625 -1 C 0.121094 -1.390625 0.207031 -1.808594 0.363281 -2.214844 C 0.484375 -2.527344 0.625 -2.820312 0.773438 -3.105469 C 0.792969 -3.152344 0.816406 -3.179688 0.832031 -3.199219 C 0.898438 -3.269531 0.960938 -3.3125 1.054688 -3.308594 C 1.210938 -3.320312 1.253906 -3.222656 1.28125 -3.164062 L 1.292969 -3.125 C 1.355469 -3.023438 1.378906 -2.925781 1.414062 -2.816406 L 1.488281 -2.605469 C 1.59375 -2.296875 1.703125 -1.980469 1.988281 -1.738281 C 2.144531 -1.605469 2.296875 -1.539062 2.449219 -1.550781 C 2.59375 -1.570312 2.742188 -1.652344 2.875 -1.808594 L 2.890625 -1.828125 C 3.015625 -1.992188 3.089844 -2.117188 3.113281 -2.273438 C 3.386719 -3.675781 3.347656 -4.933594 2.996094 -6.105469 C 2.984375 -6.132812 2.980469 -6.164062 2.980469 -6.199219 C 2.964844 -6.277344 2.964844 -6.351562 2.90625 -6.375 C 2.878906 -6.398438 2.835938 -6.386719 2.777344 -6.371094 Z M 2.777344 -6.371094 "/></g></g></g></svg>